# xmcd
# 
# Track frame offsets:
#     150
#     21477
#     45427
#     66450
#     87767
#     120187
#     142895
#     167657
# 
# Disc length: 2506
# 
# Revision: 3
# Processed by: cddbd v1.5.2PL0 Copyright (c) Steve Scherf et al.
# Submitted via: fre:ac v1.0.17
# 
DISCID=6009c808
DTITLE=Freddie Jackson - Rock Me Tonight
DYEAR=1985
DGENRE=Soul
TTITLE0=He'll Never Love You (Like I Do)
TTITLE1=Love Is Just A Touch Away
TTITLE2=I Wanna Say I Love You
TTITLE3=You Are My Lady
TTITLE4=Rock Me Tonight (For Old Times Sake)
TTITLE5=Sing A Song Of Love
TTITLE6=Calling
TTITLE7=Good Morning Heartache (Feat. Stanley Turrentine)
EXTD=
EXTT0=
EXTT1=
EXTT2=
EXTT3=
EXTT4=
EXTT5=
EXTT6=
EXTT7=
PLAYORDER=
